<?xml version="1.0" standalone="no"?>
<!DOCTYPE svg PUBLIC "-//W3C//DTD SVG 20010904//EN"
 "http://www.w3.org/TR/2001/REC-SVG-20010904/DTD/svg10.dtd">
<svg version="1.0" xmlns="http://www.w3.org/2000/svg"
 width="700.000000pt" height="700.000000pt" viewBox="0 0 700.000000 700.000000"
 preserveAspectRatio="xMidYMid meet">
<metadata>
Created by potrace 1.14, written by Peter Selinger 2001-2017
</metadata>
<g transform="translate(0.000000,700.000000) scale(0.100000,-0.100000)"
fill="#000000" stroke="none">
<path d="M3060 6125 l0 -435 -875 0 -875 0 0 -440 0 -440 875 0 875 0 0 -215
0 -215 -1310 0 -1310 0 0 -1970 0 -1970 3060 0 3060 0 0 1970 0 1970 -1310 0
-1310 0 0 215 0 215 875 0 875 0 0 440 0 440 -875 0 -875 0 0 435 0 435 -440
0 -440 0 0 -435z m0 -3280 l0 -1095 -1095 0 -1095 0 0 1088 c0 599 3 1092 7
1095 3 4 496 7 1095 7 l1088 0 0 -1095z m3068 -2 l2 -1093 -1095 0 -1095 0 0
1095 0 1095 1093 -2 1092 -3 3 -1092z m-3068 -1748 l0 -215 -1090 0 -1090 0 0
215 0 215 1090 0 1090 0 0 -215z m3060 0 l0 -215 -1090 0 -1090 0 0 215 0 215
1090 0 1090 0 0 -215z"/>
</g>
</svg>
