<svg enable-background="new 0 0 300 300" height="186.61501" viewBox="0 0 205.81599 186.61501" width="205.81599" xmlns="http://www.w3.org/2000/svg"><g clip-rule="evenodd" fill="#0f7da4" fill-rule="evenodd" transform="translate(-49.72 -54.196)"><path d="m255.463 219.701c-8.939-.841-17.757-1.143-26.382-2.6-13.444-2.277-26.7-5.674-40.145-7.957-10.106-1.714-20.096-.798-29.236 4.686-1.929 1.155-2.715 2.449-2.666 4.75.153 7.324.056 14.654.056 22.231-3.011 0-5.692 0-8.906 0 0-6.668-.311-13.374.11-20.033.269-4.188-1.419-6.143-4.924-7.893-9.502-4.745-19.406-5.067-29.49-3.129-11.948 2.295-23.774 5.247-35.751 7.357-9.282 1.637-18.697 2.852-28.397 1.32 0-38.875 0-77.59 0-116.383 17.849 1.462 34.879-2.604 51.978-6.435 7.361-1.648 14.883-2.733 22.39-3.534 7.633-.814 14.776 1.306 21.398 5.17.616.359 1.315.577 2.368 1.029 0-4.334 0-8.343 0-12.871-32.547 0-65.24 0-98.146 0 0-3.184 0-5.861 0-8.859h98.362c0-7.576 0-14.851 0-22.354h8.946v22.193h98.508v8.729c-32.628 0-65.227 0-98.137 0v12.804c.705-.254 1.506-.404 2.159-.801 9.802-5.958 20.444-6.711 31.357-4.672 13.41 2.508 26.697 5.724 40.144 8.019 7.907 1.35 16.019 1.508 24.404 2.233zm-97.346-90.768v51.178h32.645c0-2.597 0-5.01 0-8.196 5.071 11.466 25.416 14.187 34.772 1.346 2.091 5.864 5.671 8.312 10.583 6.848 3.434-1.022 1.309-3.835 1.717-5.896-4.948-.003-5.312-.342-5.329-5.093-.031-7.978.086-15.958-.062-23.933-.185-10.271-3.585-15.521-12.235-16.873-5.238-.819-10.958-.535-16.132.671-7.633 1.777-11.564 8.215-11.05 15.94h5.854c.941-2.473 1.415-4.882 2.664-6.782 3.953-6.018 17.353-6.878 21.606-1.053 1.66 2.271 1.957 6.056 1.706 9.053-.238 2.825-3.288 3.217-5.865 3.536-5.045.626-10.104 1.242-15.101 2.163-9.007 1.66-13.056 6.056-13.48 14.298-.065 1.199.105 2.411.185 3.877-6.988 0-13.745 0-20.526 0 0-3.87 0-7.441 0-11.446h18.198c0-3.479 0-6.506 0-9.864-6.233 0-12.162 0-18.106 0 0-3.371 0-6.399 0-9.723h19.017c0-3.551 0-6.793 0-10.051-10.542 0-20.711 0-31.061 0zm-3.444 37.885c-7.68 2.164-15.134 3.251-20.253-4.012-3.521-4.995-3.701-10.904-.251-16.147 4.953-7.53 12.289-6.625 20.102-4.415.85-4.262 1.65-8.275 2.454-12.296-7.932-2.5-15.271-2.74-22.614-.611-10.78 3.127-17.136 10.434-18.603 21.431-1.356 10.142.72 19.526 9.755 25.751 9.083 6.255 19.173 5.792 29.294 3.07.837-.225 1.799-2.161 1.716-3.227-.237-3.06-.982-6.086-1.6-9.544zm-76.057 13.295c0-10.229-.344-20.073.17-29.871.202-3.884 1.666-8.06 3.7-11.408 3.051-5.024 9.907-6.928 15.557-5.333 5.744 1.624 8.065 5.847 8.362 11.418.273 5.091.43 10.189.491 15.287.082 6.566.021 13.135.021 19.764h6.616c0-12.23.27-24.174-.105-36.098-.218-6.867-2.478-13.114-10.063-15.394-8.862-2.666-16.979-1.871-23.45 5.633-.248.287-.677.416-1.186.715-.097-2.173-.178-4.005-.266-6.013-2.266 0-4.313 0-6.468 0v51.298c2.187.002 4.133.002 6.621.002z"/><path d="m225.107 153.883c1.41 12.488-2.708 19.206-13.137 21.516-4.091.907-7.925.332-11.289-2.325-5.141-4.061-4.438-11.907 1.772-14.221 5.274-1.966 11.036-2.642 16.587-3.851 1.938-.42 3.898-.722 6.067-1.119z"/></g></svg>